<svg xmlns="http://www.w3.org/2000/svg" xmlns:xlink="http://www.w3.org/1999/xlink" viewBox="331.9047 240.4009 312.1905 78.1982" width="5000" height="1252.4115884371884" preserveAspectRatio="none"><defs></defs><style>.a6izo4zJpcolor {fill:#83898F;fill-opacity:1;}.aD6z1nYkhcolor {fill:#83898F;fill-opacity:1;}.agUFZA60uXcolors-0 {fill:#EA7EC3;fill-opacity:1;}.aM-WYBm4q9colors-0 {fill:#EA7EC3;fill-opacity:1;}.atBXipXk0bfillColor {fill:#83898F;fill-opacity:1;}.atBXipXk0bstrokeColor-str {stroke:#83898F;stroke-opacity:1;}.icon3-str {stroke:#2F90B0;stroke-opacity:1;}</style><g opacity="1" transform="rotate(0 436.364 294.378)"><svg width="160.8056" height="11.764" x="436.364" y="294.378" preserveAspectRatio="none" viewBox="3.76 -30.88 532.12 38.92"><g transform="matrix(1 0 0 1 0 0)" class="a6izo4zJpcolor"><path id="id-6izo4zJp25" d="M8.96-4.36L24.76-4.36L24.76 0L3.76 0L3.76-28L24.20-28L24.20-23.64L8.96-23.64L8.96-16.36L22.48-16.36L22.48-12.08L8.96-12.08L8.96-4.36Z M37.68 0.28Q35.08 0.28 32.60-0.40Q30.12-1.08 28.64-2.12L28.64-2.12L30.56-5.92Q32-4.96 34.02-4.38Q36.04-3.80 38-3.80L38-3.80Q42.48-3.80 42.48-6.16L42.48-6.16Q42.48-7.28 41.34-7.72Q40.20-8.16 37.68-8.56L37.68-8.56Q35.04-8.96 33.38-9.48Q31.72-10 30.50-11.30Q29.28-12.60 29.28-14.92L29.28-14.92Q29.28-17.96 31.82-19.78Q34.36-21.60 38.68-21.60L38.68-21.60Q40.88-21.60 43.08-21.10Q45.28-20.60 46.68-19.76L46.68-19.76L44.76-15.96Q42.04-17.56 38.64-17.56L38.64-17.56Q36.44-17.56 35.30-16.90Q34.16-16.24 34.16-15.16L34.16-15.16Q34.16-13.96 35.38-13.46Q36.60-12.96 39.16-12.52L39.16-12.52Q41.72-12.12 43.36-11.60Q45-11.08 46.18-9.84Q47.36-8.60 47.36-6.32L47.36-6.32Q47.36-3.32 44.76-1.52Q42.16 0.28 37.68 0.28L37.68 0.28Z M64.72-21.60Q67.84-21.60 70.30-20.24Q72.76-18.88 74.16-16.40Q75.56-13.92 75.56-10.68L75.56-10.68Q75.56-7.44 74.16-4.94Q72.76-2.44 70.30-1.08Q67.84 0.28 64.72 0.28L64.72 0.28Q60.40 0.28 57.88-2.60L57.88-2.60L57.88 7.76L52.88 7.76L52.88-21.36L57.64-21.36L57.64-18.56Q58.88-20.08 60.70-20.84Q62.52-21.60 64.72-21.60L64.72-21.60ZM64.16-4Q66.92-4 68.70-5.84Q70.48-7.68 70.48-10.68L70.48-10.68Q70.48-13.68 68.70-15.52Q66.92-17.36 64.16-17.36L64.16-17.36Q62.36-17.36 60.92-16.54Q59.48-15.72 58.64-14.20Q57.80-12.68 57.80-10.68L57.80-10.68Q57.80-8.68 58.64-7.16Q59.48-5.64 60.92-4.82Q62.36-4 64.16-4L64.16-4Z M101.60-10.56Q101.60-10.04 101.52-9.08L101.52-9.08L84.76-9.08Q85.20-6.72 87.06-5.34Q88.92-3.96 91.68-3.96L91.68-3.96Q95.20-3.96 97.48-6.28L97.48-6.28L100.16-3.20Q98.72-1.48 96.52-0.60Q94.32 0.28 91.56 0.28L91.56 0.28Q88.04 0.28 85.36-1.12Q82.68-2.52 81.22-5.02Q79.76-7.52 79.76-10.68L79.76-10.68Q79.76-13.80 81.18-16.30Q82.60-18.80 85.12-20.20Q87.64-21.60 90.80-21.60L90.80-21.60Q93.92-21.60 96.38-20.22Q98.84-18.84 100.22-16.34Q101.60-13.84 101.60-10.56L101.60-10.56ZM90.80-17.60Q88.40-17.60 86.74-16.18Q85.08-14.76 84.72-12.40L84.72-12.40L96.84-12.40Q96.52-14.72 94.88-16.16Q93.24-17.60 90.80-17.60L90.80-17.60Z M117.40 0.28Q114.08 0.28 111.44-1.12Q108.80-2.52 107.32-5.02Q105.84-7.52 105.84-10.68L105.84-10.68Q105.84-13.84 107.32-16.32Q108.80-18.80 111.42-20.20Q114.04-21.60 117.40-21.60L117.40-21.60Q120.56-21.60 122.94-20.32Q125.32-19.04 126.52-16.64L126.52-16.64L122.68-14.40Q121.76-15.88 120.38-16.62Q119-17.36 117.36-17.36L117.36-17.36Q114.56-17.36 112.72-15.54Q110.88-13.72 110.88-10.68L110.88-10.68Q110.88-7.64 112.70-5.82Q114.52-4 117.36-4L117.36-4Q119-4 120.38-4.74Q121.76-5.48 122.68-6.96L122.68-6.96L126.52-4.72Q125.28-2.32 122.90-1.02Q120.52 0.28 117.40 0.28L117.40 0.28Z M132.04 0L132.04-21.36L137.04-21.36L137.04 0L132.04 0ZM134.56-24.88Q133.20-24.88 132.28-25.74Q131.36-26.60 131.36-27.88L131.36-27.88Q131.36-29.16 132.28-30.02Q133.20-30.88 134.56-30.88L134.56-30.88Q135.92-30.88 136.84-30.06Q137.76-29.24 137.76-28L137.76-28Q137.76-26.68 136.86-25.78Q135.96-24.88 134.56-24.88L134.56-24.88Z M152.96-21.60Q157.68-21.60 160.18-19.34Q162.68-17.08 162.68-12.52L162.68-12.52L162.68 0L157.96 0L157.96-2.60Q157.04-1.20 155.34-0.46Q153.64 0.28 151.24 0.28L151.24 0.28Q148.84 0.28 147.04-0.54Q145.24-1.36 144.26-2.82Q143.28-4.28 143.28-6.12L143.28-6.12Q143.28-9 145.42-10.74Q147.56-12.48 152.16-12.48L152.16-12.48L157.68-12.48L157.68-12.80Q157.68-15.04 156.34-16.24Q155.00-17.44 152.36-17.44L152.36-17.44Q150.56-17.44 148.82-16.88Q147.08-16.32 145.88-15.32L145.88-15.32L143.92-18.96Q145.60-20.24 147.96-20.92Q150.32-21.60 152.96-21.60L152.96-21.60ZM152.28-3.36Q154.16-3.36 155.62-4.22Q157.08-5.08 157.68-6.68L157.68-6.68L157.68-9.16L152.52-9.16Q148.20-9.16 148.20-6.32L148.20-6.32Q148.20-4.96 149.28-4.16Q150.36-3.36 152.28-3.36L152.28-3.36Z M170.28 0L170.28-29.68L175.28-29.68L175.28 0L170.28 0Z M183.04 0L183.04-21.36L188.04-21.36L188.04 0L183.04 0ZM185.56-24.88Q184.20-24.88 183.28-25.74Q182.36-26.60 182.36-27.88L182.36-27.88Q182.36-29.16 183.28-30.02Q184.20-30.88 185.56-30.88L185.56-30.88Q186.92-30.88 187.84-30.06Q188.76-29.24 188.76-28L188.76-28Q188.76-26.68 187.86-25.78Q186.96-24.88 185.56-24.88L185.56-24.88Z M202.40 0.28Q199.80 0.28 197.32-0.40Q194.84-1.08 193.36-2.12L193.36-2.12L195.28-5.92Q196.72-4.96 198.74-4.38Q200.76-3.80 202.72-3.80L202.72-3.80Q207.20-3.80 207.20-6.16L207.20-6.16Q207.20-7.28 206.06-7.72Q204.92-8.16 202.40-8.56L202.40-8.56Q199.76-8.96 198.10-9.48Q196.44-10 195.22-11.30Q194.00-12.60 194.00-14.92L194.00-14.92Q194.00-17.96 196.54-19.78Q199.08-21.60 203.40-21.60L203.40-21.60Q205.60-21.60 207.80-21.10Q210.00-20.60 211.40-19.76L211.40-19.76L209.48-15.96Q206.76-17.56 203.36-17.56L203.36-17.56Q201.16-17.56 200.02-16.90Q198.88-16.24 198.88-15.16L198.88-15.16Q198.88-13.96 200.10-13.46Q201.32-12.96 203.88-12.52L203.88-12.52Q206.44-12.12 208.08-11.60Q209.72-11.08 210.90-9.84Q212.08-8.60 212.08-6.32L212.08-6.32Q212.08-3.32 209.48-1.52Q206.88 0.28 202.40 0.28L202.40 0.28Z M229.04-4.72L230.44-1.16Q229.56-0.44 228.30-0.08Q227.04 0.28 225.64 0.28L225.64 0.28Q222.12 0.28 220.20-1.56Q218.28-3.40 218.28-6.92L218.28-6.92L218.28-17.20L214.76-17.20L214.76-21.20L218.28-21.20L218.28-26.08L223.28-26.08L223.28-21.20L229.00-21.20L229.00-17.20L223.28-17.20L223.28-7.04Q223.28-5.48 224.04-4.66Q224.80-3.84 226.24-3.84L226.24-3.84Q227.92-3.84 229.04-4.72L229.04-4.72Z M243.92-21.60Q248.64-21.60 251.14-19.34Q253.64-17.08 253.64-12.52L253.64-12.52L253.64 0L248.92 0L248.92-2.60Q248.00-1.20 246.30-0.46Q244.60 0.28 242.20 0.28L242.20 0.28Q239.80 0.28 238.00-0.54Q236.20-1.36 235.22-2.82Q234.24-4.28 234.24-6.12L234.24-6.12Q234.24-9 236.38-10.74Q238.52-12.48 243.12-12.48L243.12-12.48L248.64-12.48L248.64-12.80Q248.64-15.04 247.30-16.24Q245.96-17.44 243.32-17.44L243.32-17.44Q241.52-17.44 239.78-16.88Q238.04-16.32 236.84-15.32L236.84-15.32L234.88-18.96Q236.56-20.24 238.92-20.92Q241.28-21.60 243.92-21.60L243.92-21.60ZM243.24-3.36Q245.12-3.36 246.58-4.22Q248.04-5.08 248.64-6.68L248.64-6.68L248.64-9.16L243.48-9.16Q239.16-9.16 239.16-6.32L239.16-6.32Q239.16-4.96 240.24-4.16Q241.32-3.36 243.24-3.36L243.24-3.36Z M267.84 0.28Q265.24 0.28 262.76-0.40Q260.28-1.08 258.80-2.12L258.80-2.12L260.72-5.92Q262.16-4.96 264.18-4.38Q266.20-3.80 268.16-3.80L268.16-3.80Q272.64-3.80 272.64-6.16L272.64-6.16Q272.64-7.28 271.50-7.72Q270.36-8.16 267.84-8.56L267.84-8.56Q265.20-8.96 263.54-9.48Q261.88-10 260.66-11.30Q259.44-12.60 259.44-14.92L259.44-14.92Q259.44-17.96 261.98-19.78Q264.52-21.60 268.84-21.60L268.84-21.60Q271.04-21.60 273.24-21.10Q275.44-20.60 276.84-19.76L276.84-19.76L274.92-15.96Q272.20-17.56 268.80-17.56L268.80-17.56Q266.60-17.56 265.46-16.90Q264.32-16.24 264.32-15.16L264.32-15.16Q264.32-13.96 265.54-13.46Q266.76-12.96 269.32-12.52L269.32-12.52Q271.88-12.12 273.52-11.60Q275.16-11.08 276.34-9.84Q277.52-8.60 277.52-6.32L277.52-6.32Q277.52-3.32 274.92-1.52Q272.32 0.28 267.84 0.28L267.84 0.28Z M315.36-10.56Q315.36-10.04 315.28-9.08L315.28-9.08L298.52-9.08Q298.96-6.72 300.82-5.34Q302.68-3.96 305.44-3.96L305.44-3.96Q308.96-3.96 311.24-6.28L311.24-6.28L313.92-3.20Q312.48-1.48 310.28-0.60Q308.08 0.28 305.32 0.28L305.32 0.28Q301.80 0.28 299.12-1.12Q296.44-2.52 294.98-5.02Q293.52-7.52 293.52-10.68L293.52-10.68Q293.52-13.80 294.94-16.30Q296.36-18.80 298.88-20.20Q301.40-21.60 304.56-21.60L304.56-21.60Q307.68-21.60 310.14-20.22Q312.60-18.84 313.98-16.34Q315.36-13.84 315.36-10.56L315.36-10.56ZM304.56-17.60Q302.16-17.60 300.50-16.18Q298.84-14.76 298.48-12.40L298.48-12.40L310.60-12.40Q310.28-14.72 308.64-16.16Q307.00-17.60 304.56-17.60L304.56-17.60Z M333.48-21.60Q337.52-21.60 339.96-19.24Q342.40-16.88 342.40-12.24L342.40-12.24L342.40 0L337.40 0L337.40-11.60Q337.40-14.40 336.08-15.82Q334.76-17.24 332.32-17.24L332.32-17.24Q329.56-17.24 327.96-15.58Q326.36-13.92 326.36-10.80L326.36-10.80L326.36 0L321.36 0L321.36-21.36L326.12-21.36L326.12-18.60Q327.36-20.08 329.24-20.84Q331.12-21.60 333.48-21.60L333.48-21.60Z M362.20 0L362.20-29.68L367.20-29.68L367.20 0L362.20 0Z M383.12-21.60Q387.84-21.60 390.34-19.34Q392.84-17.08 392.84-12.52L392.84-12.52L392.84 0L388.12 0L388.12-2.60Q387.20-1.20 385.50-0.46Q383.80 0.28 381.40 0.28L381.40 0.28Q379.00 0.28 377.20-0.54Q375.40-1.36 374.42-2.82Q373.44-4.28 373.44-6.12L373.44-6.12Q373.44-9 375.58-10.74Q377.72-12.48 382.32-12.48L382.32-12.48L387.84-12.48L387.84-12.80Q387.84-15.04 386.50-16.24Q385.16-17.44 382.52-17.44L382.52-17.44Q380.72-17.44 378.98-16.88Q377.24-16.32 376.04-15.32L376.04-15.32L374.08-18.96Q375.76-20.24 378.12-20.92Q380.48-21.60 383.12-21.60L383.12-21.60ZM382.44-3.36Q384.32-3.36 385.78-4.22Q387.24-5.08 387.84-6.68L387.84-6.68L387.84-9.16L382.68-9.16Q378.36-9.16 378.36-6.32L378.36-6.32Q378.36-4.96 379.44-4.16Q380.52-3.36 382.44-3.36L382.44-3.36Z M439.64-21.60Q443.68-21.60 446.04-19.26Q448.40-16.92 448.40-12.24L448.40-12.24L448.40 0L443.40 0L443.40-11.60Q443.40-14.40 442.16-15.82Q440.92-17.24 438.60-17.24L438.60-17.24Q436.08-17.24 434.56-15.58Q433.04-13.92 433.04-10.84L433.04-10.84L433.04 0L428.04 0L428.04-11.60Q428.04-14.40 426.80-15.82Q425.56-17.24 423.24-17.24L423.24-17.24Q420.68-17.24 419.18-15.60Q417.68-13.96 417.68-10.84L417.68-10.84L417.68 0L412.68 0L412.68-21.36L417.44-21.36L417.44-18.64Q418.64-20.08 420.44-20.84Q422.24-21.60 424.44-21.60L424.44-21.60Q426.84-21.60 428.70-20.70Q430.56-19.80 431.64-18.04L431.64-18.04Q432.96-19.72 435.04-20.66Q437.12-21.60 439.64-21.60L439.64-21.60Z M471.68-21.36L476.68-21.36L476.68 0L471.92 0L471.92-2.72Q470.72-1.28 468.92-0.50Q467.12 0.28 465.04 0.28L465.04 0.28Q460.76 0.28 458.30-2.10Q455.84-4.48 455.84-9.16L455.84-9.16L455.84-21.36L460.84-21.36L460.84-9.84Q460.84-6.96 462.14-5.54Q463.44-4.12 465.84-4.12L465.84-4.12Q468.52-4.12 470.10-5.78Q471.68-7.44 471.68-10.56L471.68-10.56L471.68-21.36Z M482.24 8.04Q479.08 8.04 477.44 6.80L477.44 6.80L478.88 3.08Q480.00 3.92 481.80 3.92L481.80 3.92Q483.20 3.92 483.94 3.06Q484.68 2.20 484.68 0.52L484.68 0.52L484.68-21.36L489.68-21.36L489.68 0.40Q489.68 3.96 487.72 6Q485.76 8.04 482.24 8.04L482.24 8.04ZM487.16-24.88Q485.80-24.88 484.88-25.74Q483.96-26.60 483.96-27.88L483.96-27.88Q483.96-29.16 484.88-30.02Q485.80-30.88 487.16-30.88L487.16-30.88Q488.52-30.88 489.44-30.06Q490.36-29.24 490.36-28L490.36-28Q490.36-26.68 489.46-25.78Q488.56-24.88 487.16-24.88L487.16-24.88Z M517.52-10.56Q517.52-10.04 517.44-9.08L517.44-9.08L500.68-9.08Q501.12-6.72 502.98-5.34Q504.84-3.96 507.60-3.96L507.60-3.96Q511.12-3.96 513.40-6.28L513.40-6.28L516.08-3.20Q514.64-1.48 512.44-0.60Q510.24 0.28 507.48 0.28L507.48 0.28Q503.96 0.28 501.28-1.12Q498.60-2.52 497.14-5.02Q495.68-7.52 495.68-10.68L495.68-10.68Q495.68-13.80 497.10-16.30Q498.52-18.80 501.04-20.20Q503.56-21.60 506.72-21.60L506.72-21.60Q509.84-21.60 512.30-20.22Q514.76-18.84 516.14-16.34Q517.52-13.84 517.52-10.56L517.52-10.56ZM506.72-17.60Q504.32-17.60 502.66-16.18Q501.00-14.76 500.64-12.40L500.64-12.40L512.76-12.40Q512.44-14.72 510.80-16.16Q509.16-17.60 506.72-17.60L506.72-17.60Z M528.28-18.24Q530.44-21.60 535.88-21.60L535.88-21.60L535.88-16.84Q535.24-16.96 534.72-16.96L534.72-16.96Q531.80-16.96 530.16-15.26Q528.52-13.56 528.52-10.36L528.52-10.36L528.52 0L523.52 0L523.52-21.36L528.28-21.36L528.28-18.24Z"></path></g></svg></g><g opacity="1" transform="rotate(0 436.364 252.858)"><svg width="207.7312" height="34.6" x="436.364" y="252.858" preserveAspectRatio="none" viewBox="4.8 -28.48 173.88 28.96"><g transform="matrix(1 0 0 1 0 0)" class="aD6z1nYkhcolor"><path id="id-D6z1nYkh7" d="M22.88-28L4.80-28L4.80 0L8.44 0L8.44-13.92L20.84-13.92L20.84-15.76L8.44-15.76L8.44-25.80L22.88-25.80L22.88-28Z M29.84-9.12L45.04-9.12L45.04-9.96Q45.04-12.64 44.28-14.60Q43.52-16.56 42.22-17.84Q40.92-19.12 39.20-19.76Q37.48-20.40 35.56-20.40L35.56-20.40Q33.52-20.40 31.80-19.70Q30.08-19 28.80-17.66Q27.52-16.32 26.80-14.42Q26.08-12.52 26.08-10.12L26.08-10.12Q26.08-8.12 26.70-6.22Q27.32-4.32 28.58-2.82Q29.84-1.32 31.78-0.42Q33.72 0.48 36.36 0.48L36.36 0.48Q38.92 0.48 41.08-0.42Q43.24-1.32 44.84-3L44.84-3L43.56-4.28Q42.72-3.56 41.98-2.96Q41.24-2.36 40.48-1.96Q39.72-1.56 38.90-1.34Q38.08-1.12 37.08-1.12L37.08-1.12Q35.96-1.12 34.70-1.46Q33.44-1.80 32.36-2.68Q31.28-3.56 30.56-5.12Q29.84-6.68 29.84-9.12L29.84-9.12ZM41.56-10.72L29.84-10.72Q29.84-12.32 30.18-13.82Q30.52-15.32 31.22-16.48Q31.92-17.64 33-18.34Q34.08-19.04 35.56-19.04L35.56-19.04Q38.40-19.04 39.98-16.82Q41.56-14.60 41.56-10.72L41.56-10.72Z M50.24 0L53.64 0L53.64-11.40Q53.64-12.12 53.76-13.30Q53.88-14.48 54.38-15.62Q54.88-16.76 55.92-17.58Q56.96-18.40 58.84-18.40L58.84-18.40Q60.20-18.40 60.94-17.80Q61.68-17.20 62.04-16.32Q62.40-15.44 62.46-14.48Q62.52-13.52 62.52-12.80L62.52-12.80L62.52 0L65.92 0L65.92-11.40Q65.92-12.28 66.08-13.50Q66.24-14.72 66.76-15.80Q67.28-16.88 68.26-17.64Q69.24-18.40 70.92-18.40L70.92-18.40Q72.16-18.40 72.92-18.04Q73.68-17.68 74.10-16.96Q74.52-16.24 74.66-15.20Q74.80-14.16 74.80-12.80L74.80-12.80L74.80 0L78.20 0L78.20-13.96Q78.20-14.88 78-16.02Q77.80-17.16 77.14-18.14Q76.48-19.12 75.22-19.78Q73.96-20.44 71.88-20.44L71.88-20.44Q71.28-20.44 70.48-20.32Q69.68-20.20 68.80-19.80Q67.92-19.40 67.10-18.64Q66.28-17.88 65.68-16.64L65.68-16.64L65.40-16.64Q65.16-17.28 64.72-17.94Q64.28-18.60 63.60-19.16Q62.92-19.72 61.98-20.08Q61.04-20.44 59.72-20.44L59.72-20.44Q59.12-20.44 58.28-20.30Q57.44-20.16 56.60-19.76Q55.76-19.36 55.02-18.64Q54.28-17.92 53.80-16.76L53.80-16.76L53.64-16.76L53.64-20L50.24-20L50.24 0Z M89.28-20L85.88-20L85.88 0L89.28 0L89.28-20ZM85.40-26.32L85.40-26.32Q85.40-25.44 86.04-24.80Q86.68-24.16 87.56-24.16L87.56-24.16Q88.44-24.16 89.08-24.80Q89.72-25.44 89.72-26.32L89.72-26.32Q89.72-27.20 89.08-27.84Q88.44-28.48 87.56-28.48L87.56-28.48Q86.68-28.48 86.04-27.84Q85.40-27.20 85.40-26.32Z M114.08-3.96L101.24-28L98.52-28L98.52 0L100.28 0L100.28-22.84L100.44-22.84L112.80 0.48L113.52 0.48L126.16-22.68L126.32-22.68L126.32 0L129.96 0L129.96-28L127.20-28L114.24-3.96L114.08-3.96Z M140.52-9.12L155.72-9.12L155.72-9.96Q155.72-12.64 154.96-14.60Q154.20-16.56 152.90-17.84Q151.60-19.12 149.88-19.76Q148.16-20.40 146.24-20.40L146.24-20.40Q144.20-20.40 142.48-19.70Q140.76-19 139.48-17.66Q138.20-16.32 137.48-14.42Q136.76-12.52 136.76-10.12L136.76-10.12Q136.76-8.12 137.38-6.22Q138-4.32 139.26-2.82Q140.52-1.32 142.46-0.42Q144.40 0.48 147.04 0.48L147.04 0.48Q149.60 0.48 151.76-0.42Q153.92-1.32 155.52-3L155.52-3L154.24-4.28Q153.40-3.56 152.66-2.96Q151.92-2.36 151.16-1.96Q150.40-1.56 149.58-1.34Q148.76-1.12 147.76-1.12L147.76-1.12Q146.64-1.12 145.38-1.46Q144.12-1.80 143.04-2.68Q141.96-3.56 141.24-5.12Q140.52-6.68 140.52-9.12L140.52-9.12ZM152.24-10.72L140.52-10.72Q140.52-12.32 140.86-13.82Q141.20-15.32 141.90-16.48Q142.60-17.64 143.68-18.34Q144.76-19.04 146.24-19.04L146.24-19.04Q149.08-19.04 150.66-16.82Q152.24-14.60 152.24-10.72L152.24-10.72Z M178.68 0L178.68-28L175.28-28L175.28-16.72L175.12-16.72Q174.72-17.76 174.06-18.46Q173.40-19.16 172.56-19.60Q171.72-20.04 170.78-20.24Q169.84-20.44 168.88-20.44L168.88-20.44Q166.88-20.44 165.20-19.70Q163.52-18.96 162.30-17.60Q161.08-16.24 160.40-14.32Q159.72-12.40 159.72-10.04L159.72-10.04Q159.72-7.64 160.40-5.70Q161.08-3.76 162.30-2.38Q163.52-1 165.20-0.26Q166.88 0.48 168.88 0.48L168.88 0.48Q173.60 0.48 175.12-3.24L175.12-3.24L175.28-3.24L175.28 0L178.68 0ZM175.28-11.48L175.28-8Q175.28-6.68 174.84-5.50Q174.40-4.32 173.66-3.46Q172.92-2.60 171.90-2.10Q170.88-1.60 169.72-1.60L169.72-1.60Q168.44-1.60 167.32-2.06Q166.20-2.52 165.36-3.52Q164.52-4.52 164.02-6.12Q163.52-7.72 163.52-9.96L163.52-9.96Q163.52-12.24 164.02-13.84Q164.52-15.44 165.38-16.46Q166.24-17.48 167.36-17.94Q168.48-18.40 169.72-18.40L169.72-18.40Q170.84-18.40 171.84-17.94Q172.84-17.48 173.60-16.58Q174.36-15.68 174.82-14.40Q175.28-13.12 175.28-11.48L175.28-11.48Z"></path></g></svg></g><g opacity="1" transform="rotate(0 424.4497 244.2081)"><svg width="1.1533" height="70.5839" x="424.4497" y="244.2081" preserveAspectRatio="none" viewBox="0 0 1.1533 70.5839"><rect x="0" y="0" width="1.1533" height="70.5839" class="atBXipXk0bfillColor atBXipXk0bstrokeColor-str" style="stroke-width:0;" rx="0px" ry="0px"></rect></svg></g><g opacity="1" transform="rotate(0 331.9047 240.4009)"><svg width="78.1981" height="78.1982" x="331.9047" y="240.4009" preserveAspectRatio="none" viewBox="10 10 180 180"><g transform="matrix(1 0 0 1 0 0)"><g><path d="M99.906 190C50.322 190 10 149.488 10 99.671c0-6.674.655-12.877 1.778-18.423l11.788 2.538c-1.029 4.7-1.59 10.057-1.59 15.885 0 43.144 34.99 78.298 77.931 78.298a76.38 76.38 0 0 0 28.815-5.64l4.491 11.185c-10.76 4.23-21.986 6.486-33.307 6.486z" data-color="1" class="aM-WYBm4q9colors-0"></path><path d="M65.01 31.713c4.304 0 7.672-3.384 7.672-7.708s-3.368-7.708-7.672-7.708-7.672 3.384-7.672 7.708c.001 4.042 3.556 7.708 7.672 7.708" data-color="1" class="aM-WYBm4q9colors-0"></path><path d="M91.206 25.415c4.304 0 7.672-3.384 7.672-7.708S95.509 10 91.206 10s-7.672 3.384-7.672 7.708c0 4.041 3.368 7.707 7.672 7.707" data-color="1" class="aM-WYBm4q9colors-0"></path><path d="M117.682 26.825c4.304 0 7.672-3.384 7.672-7.708s-3.649-7.708-7.672-7.708-7.672 3.384-7.672 7.708c0 4.136 3.368 7.708 7.672 7.708" data-color="1" class="aM-WYBm4q9colors-0"></path><path d="M141.726 36.507c4.304 0 7.672-3.384 7.672-7.708s-3.368-7.708-7.672-7.708-7.672 3.384-7.672 7.708c0 4.136 3.368 7.708 7.672 7.708" data-color="1" class="aM-WYBm4q9colors-0"></path><path d="M162.214 53.708c4.304 0 7.672-3.384 7.672-7.708s-3.368-7.708-7.672-7.708-7.672 3.384-7.672 7.708 3.275 7.708 7.672 7.708" data-color="1" class="aM-WYBm4q9colors-0"></path><path d="M175.873 76.36c4.304 0 7.672-3.384 7.672-7.708s-3.368-7.708-7.672-7.708-7.672 3.384-7.672 7.708 3.556 7.708 7.672 7.708" data-color="1" class="aM-WYBm4q9colors-0"></path><path d="M182.328 101.739c4.304 0 7.672-3.384 7.672-7.708s-3.368-7.708-7.672-7.708-7.672 3.666-7.672 7.708 3.369 7.708 7.672 7.708" data-color="1" class="aM-WYBm4q9colors-0"></path><path d="M179.522 128.809c4.304 0 7.672-3.384 7.672-7.708s-3.368-7.708-7.672-7.708-7.672 3.384-7.672 7.708c0 4.325 3.275 7.708 7.672 7.708" data-color="1" class="aM-WYBm4q9colors-0"></path></g></g></svg></g><g opacity="1" transform="rotate(0 344.9422 264.6024)"><svg width="52.123" height="29.7953" x="344.9422" y="264.6024" preserveAspectRatio="none" viewBox="5 24.276994705200195 90 51.44700622558594"><g transform="matrix(1 0 0 1 0 0)" class="agUFZA60uXcolors-0"><path d="M24.649,59.402c-1.736-3.008-2.881-6.173-3.61-9.282c-2.342-0.405-4.825-0.608-7.441-0.608  c-3.688,0-6.775,0.421-8.598,0.742c1.566,4.276,6.459,15.5,16.313,21.189c4.92,2.84,10.944,4.28,17.906,4.28  c1.571,0,3.031-0.076,4.333-0.188C37.889,72.925,29.551,67.892,24.649,59.402z"></path><path d="M36.445,48.995c0-3.471,0.591-6.782,1.514-9.838c-5.285-4.402-11.132-6.887-13.958-7.923  c-0.781,4.491-2.152,16.651,3.535,26.502c4.363,7.558,11.948,12.186,17.187,14.643C41.126,67.282,36.445,58.772,36.445,48.995z"></path><path d="M39.778,48.995c0,11.375,7.267,21.219,10.19,24.718c2.923-3.499,10.19-13.344,10.19-24.718  c0-11.374-7.268-21.219-10.19-24.718C47.046,27.774,39.778,37.62,39.778,48.995z"></path><path d="M75.997,31.233c-2.834,1.039-8.709,3.537-14.007,7.965c0.915,3.044,1.501,6.34,1.501,9.796  c0,9.802-4.702,18.327-8.303,23.419c5.245-2.453,12.897-7.096,17.274-14.678C78.15,47.886,76.779,35.726,75.997,31.233z"></path><path d="M60.779,75.724c6.961,0,12.985-1.44,17.905-4.28C88.562,65.74,93.439,54.531,95,50.255  c-1.826-0.321-4.923-0.744-8.599-0.744c-2.616,0-5.1,0.204-7.442,0.608c-0.729,3.109-1.873,6.274-3.609,9.282  c-4.902,8.49-13.238,13.521-18.902,16.131C57.75,75.646,59.211,75.724,60.779,75.724z"></path></g></svg></g></svg>